Coordinates
version=1
nRows=29
nColumns=24
inDegrees=yes

Units are S.I. units (second, meters, Newtons, ...)
Angles are in degrees.

endheader
time	pelvis_tilt	pelvis_list	pelvis_rotation	pelvis_tx	pelvis_ty	pelvis_tz	hip_flexion_r	hip_adduction_r	hip_rotation_r	knee_angle_r	ankle_angle_r	subtalar_angle_r	mtp_angle_r	hip_flexion_l	hip_adduction_l	hip_rotation_l	knee_angle_l	ankle_angle_l	subtalar_angle_l	mtp_angle_l	lumbar_extension	lumbar_bending	lumbar_rotation
      5.20000000	     37.03860430	      5.17583874	      5.26673205	      0.01324284	      0.65172683	     -0.26442920	    -17.08684541	     -2.88784786	     -9.15524992	      0.76850150	      9.85356370	     10.40343587	      0.00000000	    -49.08918053	      0.17020647	      2.52059211	    -22.13970928	     26.81632665	     15.12027517	      0.00000000	    -64.72872799	      0.34080603	     -9.12258651
      5.20500000	     37.12477252	      4.99914508	      5.50152423	      0.01856460	      0.65162167	     -0.26393939	    -17.16880010	     -2.53988440	     -9.08382849	      0.05608454	      9.29617319	     10.22115657	      0.00000000	    -49.03904508	     -0.28101689	      2.55319116	    -23.37366663	     26.39039753	     15.26329598	      0.00000000	    -64.81191475	      0.67725260	     -8.92440558
      5.21000000	     37.21067064	      4.78780922	      5.81255117	      0.02401564	      0.65161628	     -0.26348841	    -17.26774812	     -2.11532500	     -8.95550488	     -0.70413519	      8.65464080	      9.65079298	      0.00000000	    -48.95794650	     -0.82286676	      2.59459101	    -24.65378904	     25.83875479	     15.42822959	      0.00000000	    -64.85629357	      1.10847341	     -8.79303861
      5.21500000	     37.31527456	      4.57229530	      6.08253217	      0.02939105	      0.65167865	     -0.26299766	    -17.36474447	     -1.69708980	     -8.79323723	     -1.51688379	      7.97632010	      9.11068415	      0.00000000	    -48.82904703	     -1.33724310	      2.57022690	    -26.03453480	     25.16843148	     15.56182604	      0.00000000	    -64.94326406	      1.49986433	     -8.63815326
      5.22000000	     37.40994427	      4.32792784	      6.32937749	      0.03478410	      0.65179870	     -0.26251846	    -17.44320749	     -1.25665400	     -8.59974686	     -2.35805466	      7.28576867	      8.53290023	      0.00000000	    -48.63930858	     -1.84921189	      2.49375511	    -27.49095583	     24.36319740	     15.67229330	      0.00000000	    -65.01055374	      1.90208049	     -8.45705154
      5.22500000	     37.49306652	      4.06810388	      6.55266464	      0.04017866	      0.65197355	     -0.26202663	    -17.49949215	     -0.80778699	     -8.36194559	     -3.22839694	      6.60652171	      7.92251796	      0.00000000	    -48.38864236	     -2.35435851	      2.35328577	    -29.01057308	     23.41456644	     15.75149752	      0.00000000	    -65.06310880	      2.29378291	     -8.26355331
      5.23000000	     37.55693152	      3.78483608	      6.75108206	      0.04558137	      0.65219971	     -0.26151254	    -17.53008759	     -0.34013322	     -8.07583742	     -4.11299023	      5.95634194	      7.26923493	      0.00000000	    -48.06763720	     -2.85675333	      2.15552027	    -30.59048056	     22.30651601	     15.78461238	      0.00000000	    -65.09712703	      2.67653853	     -8.05446504
      5.23500000	     37.60203461	      3.49116113	      6.91558649	      0.05098603	      0.65246839	     -0.26097924	    -17.53855645	      0.12708563	     -7.73973214	     -5.00449540	      5.36014032	      6.59572846	      0.00000000	    -47.68181373	     -3.34208864	      1.89047054	    -32.21740419	     21.03651246	     15.75967226	      0.00000000	    -65.10877695	      3.03926260	     -7.83579415
      5.24000000	     37.63160286	      3.18903670	      7.04750990	      0.05638474	      0.65277910	     -0.26041547	    -17.53237910	      0.59428661	     -7.36876510	     -5.89241453	      4.83237618	      5.92692805	      0.00000000	    -47.23630717	     -3.81187597	      1.56469251	    -33.88066363	     19.59118165	     15.66180364	      0.00000000	    -65.10446060	      3.37635517	     -7.61050612
      5.24500000	     37.56178045	      2.88216665	      7.03870384	      0.06176110	      0.65307705	     -0.25969782	    -17.37964476	      1.01556918	     -6.81537955	     -6.83123154	      4.42560141	      5.18621658	      0.00000000	    -46.64736854	     -4.18693827	      1.09180684	    -35.57003824	     17.94599084	     15.58737745	      0.00000000	    -65.01298480	      3.58910041	     -7.35869833
      5.25000000	     37.61970478	      2.57165489	      7.18802775	      0.06719426	      0.65349426	     -0.25919268	    -17.46598934	      1.50292229	     -6.51851030	     -7.63543296	      4.06967392	      4.64888177	      0.00000000	    -46.16030015	     -4.68219704	      0.72043378	    -37.26157858	     16.17704676	     15.22137560	      0.00000000	    -65.01581222	      3.95200156	     -7.14395038
      5.25500000	     37.63815626	      2.28275057	      7.26787621	      0.07258499	      0.65393514	     -0.25859253	    -17.51862494	      1.95466615	     -6.12962717	     -8.41480679	      3.80447032	      3.98649379	      0.00000000	    -45.58928148	     -5.12156523	      0.27117458	    -38.96218318	     14.22661193	     14.80487664	      0.00000000	    -64.99394293	      4.24952637	     -6.96484050
      5.26000000	     37.51948138	      1.98550192	      7.21014129	      0.07800851	      0.65432133	     -0.25782824	    -17.39067826	      2.36450876	     -5.50179537	     -9.24755698	      3.73479754	      3.27505058	      0.00000000	    -44.85039406	     -5.46886752	     -0.28521689	    -40.65396586	     12.10539985	     14.40269607	      0.00000000	    -64.82856409	      4.40576423	     -6.73770949
      5.26500000	     37.51808654	      1.70500229	      7.24939837	      0.08339617	      0.65481748	     -0.25718680	    -17.47393588	      2.79932844	     -5.11957455	     -9.94689782	      3.68962642	      2.75423767	      0.00000000	    -44.20267506	     -5.88588705	     -0.79565240	    -42.31960961	      9.89110841	     13.74911562	      0.00000000	    -64.77796125	      4.64880878	     -6.56538704
      5.27000000	     37.42562791	      1.44556233	      7.19377602	      0.08874994	      0.65529258	     -0.25638965	    -17.44919992	      3.18561116	     -4.65733674	    -10.66044473	      3.77698695	      2.14726691	      0.00000000	    -43.43190934	     -6.23665121	     -1.40737101	    -43.96011477	      7.57622179	     13.03493262	      0.00000000	    -64.64902272	      4.76841221	     -6.40056706
      5.27500000	     37.48992918	      1.18733315	      7.28471523	      0.09413753	      0.65589822	     -0.25581024	    -17.71330064	      3.62859745	     -4.42580479	    -11.18359998	      3.86869708	      1.74177447	      0.00000000	    -42.81054316	     -6.69279125	     -1.90690143	    -45.54392872	      5.24041346	     12.14155884	      0.00000000	    -64.64370021	      5.03508235	     -6.27276561
      5.28000000	     37.34890240	      0.98267077	      7.16981052	      0.09940671	      0.65639222	     -0.25500291	    -17.68705948	      3.93933587	     -3.89883502	    -11.81968337	      4.19011625	      1.18808619	      0.00000000	    -41.93625542	     -6.94894491	     -2.50125942	    -47.12197435	      2.86905117	     11.20448047	      0.00000000	    -64.47543311	      5.08696381	     -6.16151882
      5.28500000	     37.40912581	      0.75329023	      7.23810633	      0.10470868	      0.65704214	     -0.25441066	    -18.01101557	      4.35048834	     -3.69781929	    -12.22622852	      4.41928095	      0.83412304	      0.00000000	    -41.26847473	     -7.37036901	     -2.99921521	    -48.62438987	      0.59856050	     10.12830669	      0.00000000	    -64.47731062	      5.32002822	     -6.04779951
      5.29000000	     37.42167375	      0.58369243	      7.23915851	      0.10992940	      0.65769096	     -0.25377551	    -18.28961072	      4.67637129	     -3.42119743	    -12.63092786	      4.78503145	      0.46544135	      0.00000000	    -40.53278986	     -7.68326647	     -3.48915600	    -50.08033419	     -1.59361110	      8.99300260	      0.00000000	    -64.44935529	      5.45835971	     -5.98850128
      5.29500000	     37.39929908	      0.43068641	      7.21093431	      0.11509346	      0.65833693	     -0.25310673	    -18.54984825	      4.97251958	     -3.14647693	    -12.99750190	      5.20901930	      0.15823390	      0.00000000	    -39.74443747	     -7.95623027	     -3.96981111	    -51.49835486	     -3.60225007	      7.84106386	      0.00000000	    -64.39467259	      5.55432944	     -5.92358418
      5.30000000	     37.22483251	      0.30677256	      7.07920821	      0.12019512	      0.65891101	     -0.25236877	    -18.61968451	      5.18187933	     -2.79333137	    -13.41249348	      5.77051641	     -0.07950303	      0.00000000	    -38.77604425	     -8.10396516	     -4.44870666	    -52.89840394	     -5.39475112	      6.74107802	      0.00000000	    -64.19733111	      5.52347140	     -5.87566783
      5.30500000	     37.29019595	      0.14259288	      7.12234356	      0.12540929	      0.65966074	     -0.25183219	    -19.09715628	      5.51832380	     -2.65407911	    -13.56733530	      6.17493672	     -0.26650144	      0.00000000	    -38.09335216	     -8.42139320	     -4.83660591	    -54.19024856	     -6.87807575	      5.70741949	      0.00000000	    -64.18915345	      5.67951796	     -5.74638462
      5.31000000	     37.18921690	      0.10275299	      7.01434130	      0.13028805	      0.66032028	     -0.25122411	    -19.30734181	      5.63844990	     -2.45610778	    -13.87099887	      6.76089066	     -0.36400702	      0.00000000	    -37.17556334	     -8.48001055	     -5.20929836	    -55.50267737	     -8.08499849	      4.59924799	      0.00000000	    -64.11130810	      5.64687990	     -5.78503813
      5.31500000	     37.26212409	     -0.00466308	      7.02068436	      0.13533986	      0.66109822	     -0.25074669	    -19.83022679	      5.89250285	     -2.33068783	    -13.95470510	      7.22094717	     -0.46716535	      0.00000000	    -36.48931128	     -8.67876423	     -5.52400555	    -56.71382614	     -8.89133677	      3.66225113	      0.00000000	    -64.13747054	      5.74883963	     -5.66780988
      5.32000000	     37.30026815	     -0.03450208	      6.96559182	      0.14024662	      0.66188027	     -0.25025471	    -20.30786887	      6.02969167	     -2.21891196	    -14.05603775	      7.73906701	     -0.48927720	      0.00000000	    -35.75337149	     -8.73908428	     -5.80813431	    -57.88469535	     -9.39687751	      2.74640532	      0.00000000	    -64.16428702	      5.75017082	     -5.64360570
      5.32500000	     37.20542456	     -0.01626873	      6.88048924	      0.14502792	      0.66262180	     -0.24977788	    -20.62310078	      6.07490770	     -2.14811839	    -14.18129203	      8.28560342	     -0.37244925	      0.00000000	    -34.82936421	     -8.69920126	     -6.03285997	    -59.05929614	     -9.64621211	      1.95674178	      0.00000000	    -64.09367666	      5.70482238	     -5.68248643
      5.33000000	     37.23972121	     -0.02188005	      6.81414896	      0.14987455	      0.66342772	     -0.24932239	    -21.14619977	      6.17073430	     -2.10343765	    -14.18487143	      8.77276147	     -0.33204439	      0.00000000	    -34.09434350	     -8.69621688	     -6.27473942	    -60.12914753	     -9.46030541	      1.25502166	      0.00000000	    -64.11802408	      5.68042130	     -5.62443585
      5.33500000	     37.26469226	      0.01328634	      6.73401570	      0.15470912	      0.66425267	     -0.24893675	    -21.68644118	      6.20487638	     -2.02815620	    -14.15162525	      9.26809373	     -0.20229935	      0.00000000	    -33.35423808	     -8.60926528	     -6.46089950	    -61.13347077	     -9.00800170	      0.63738117	      0.00000000	    -64.12857153	      5.62642205	     -5.59325506
      5.34000000	     37.28418670	      0.06450855	      6.64812717	      0.15946871	      0.66506613	     -0.24853470	    -22.22368241	      6.21631239	     -1.97441761	    -14.10459414	      9.77828172	     -0.02756218	      0.00000000	    -32.59358200	     -8.49447819	     -6.63333120	    -62.09451316	     -8.34464898	      0.11781408	      0.00000000	    -64.14945047	      5.55799132	     -5.57358792
